<?xml version="1.0" standalone="no"?>
<!DOCTYPE svg PUBLIC "-//W3C//DTD SVG 20010904//EN"
 "http://www.w3.org/TR/2001/REC-SVG-20010904/DTD/svg10.dtd">
<svg version="1.0" xmlns="http://www.w3.org/2000/svg"
 width="706.000000pt" height="930.000000pt" viewBox="0 0 706.000000 930.000000"
 preserveAspectRatio="xMidYMid meet">

<g transform="translate(0.000000,930.000000) scale(0.100000,-0.100000)"
fill="#000000" stroke="none">
<path d="M3145 9284 c-1661 -185 -2954 -1482 -3130 -3139 -20 -185 -19 -563 0
-753 88 -847 450 -1747 1090 -2712 424 -638 923 -1243 1555 -1883 346 -351
832 -797 870 -797 33 0 375 307 719 645 845 832 1542 1707 2021 2541 128 222
332 635 419 849 182 444 300 885 353 1315 18 142 17 712 0 840 -64 463 -176
828 -372 1207 -546 1056 -1580 1762 -2765 1888 -174 18 -592 18 -760 -1z m700
-1944 c146 -31 264 -72 400 -140 160 -80 287 -172 415 -300 288 -288 450 -656
467 -1060 10 -249 -31 -475 -125 -695 -212 -492 -630 -831 -1165 -947 -150
-32 -456 -32 -609 0 -650 136 -1134 616 -1268 1257 -27 131 -37 357 -21 495
81 691 604 1258 1281 1389 150 29 157 30 350 26 129 -3 201 -9 275 -25z"/>
<path d="M3388 7263 c-21 -2 -38 -6 -38 -9 0 -19 227 -353 275 -403 67 -70
113 -98 198 -117 67 -16 141 -51 187 -90 39 -33 273 -341 268 -354 -5 -14
-190 -200 -199 -200 -5 0 -36 42 -70 93 -213 317 -316 433 -405 456 -130 34
-223 85 -296 163 -26 28 -98 126 -159 219 -61 93 -113 169 -114 169 -3 0 -130
-52 -133 -55 -5 -5 188 -282 230 -330 54 -62 109 -97 198 -129 186 -67 287
-154 422 -361 148 -229 211 -330 212 -340 1 -17 -203 -227 -216 -223 -6 2 -20
22 -32 43 -13 22 -36 65 -53 95 -167 301 -277 470 -372 572 -61 67 -98 89
-189 112 -148 38 -234 104 -352 270 -43 61 -85 120 -93 130 -14 19 -17 17 -73
-28 -32 -27 -61 -52 -62 -57 -4 -11 98 -141 137 -177 42 -37 107 -73 219 -118
57 -24 122 -55 142 -69 57 -39 139 -133 236 -270 64 -90 374 -607 374 -624 0
-17 -230 -261 -246 -261 -6 0 -38 51 -69 113 -323 638 -357 700 -477 858 -94
125 -165 176 -265 190 -66 9 -128 40 -193 96 -28 25 -57 43 -64 40 -17 -7
-112 -159 -154 -248 -78 -164 -152 -475 -152 -639 0 -72 27 -251 56 -370 60
-245 197 -483 389 -675 231 -231 482 -356 843 -420 176 -31 250 -30 432 4 163
31 297 74 427 137 389 190 675 546 782 974 22 88 51 286 51 350 0 164 -72 469
-151 635 -133 283 -368 529 -639 672 -87 45 -231 105 -238 98 -2 -2 19 -40 47
-84 28 -44 66 -106 86 -139 51 -87 89 -117 177 -136 102 -23 170 -59 232 -122
93 -96 93 -91 -4 -189 -47 -47 -87 -85 -91 -85 -3 0 -39 41 -79 90 -117 146
-199 210 -268 210 -14 0 -62 18 -107 39 -91 45 -121 74 -224 221 -36 53 -95
137 -131 188 l-65 92 -55 -2 c-30 -1 -72 -3 -92 -5z"/>
</g>
</svg>
